# xmcd
#
# Track frame offsets: 
#        150
#        3037
#        20775
#        38454
#        48518
#        66429
#        86184
#        107390
#        110054
#        127891
#        159343
#        175979
#        195197
#        206272
#        217922
#        228137
#        253321
#        261702
#        270554
#        291296
#
# Disc length: 4053 seconds
#
# Revision: 1
# Processed by: cddbd v1.5.2PL0 Copyright (c) Steve Scherf et al.
# Submitted via: ExactAudioCopy v1.0b3
#
DISCID=150fd314
DTITLE=Various Artist - Somethin' Blue
DYEAR=2007
DGENRE=Jazz
TTITLE0=The Three Sounds - Out of this World
TTITLE1=Miles Davis - It never entered my mind
TTITLE2=Nicola Conte - All Gone
TTITLE3=Dakota Staton - Say it Ain't So, Joe
TTITLE4=Charlie Hunter;Norah Jones - More than this
TTITLE5=Cassandra Wilson - Waters of March
TTITLE6=Ike Quebec - Me 'n You
TTITLE7=Dianne Reeves - Jive Samba
TTITLE8=Horace Silver - Love Vibrations
TTITLE9=Cliff Jordan - Laconia
TTITLE10=Bobby Mc Ferrin - A Piece, A Chord
TTITLE11=Charlie Rouse - Velhos Tempos
TTITLE12=Duke Pearson - Lamento
TTITLE13=Bill Perkins - Little Bird - Little Boat
TTITLE14=Wilson Simonal - Tudo De Voce
TTITLE15=Blue Mitchell - Perception
TTITLE16=Blossom Dearie - Charade
TTITLE17=Billie Holiday - Blue Turning Grey Over You
TTITLE18=Chucho Valdes - Nanu
TTITLE19=Chet Baker - The Thrill Is Gone
EXTD=YEAR: 2007
EXTT0=
EXTT1=
EXTT2=
EXTT3=
EXTT4=
EXTT5=
EXTT6=
EXTT7=
EXTT8=
EXTT9=
EXTT10=
EXTT11=
EXTT12=
EXTT13=
EXTT14=
EXTT15=
EXTT16=
EXTT17=
EXTT18=
EXTT19=
PLAYORDER=
